<svg xmlns="http://www.w3.org/2000/svg" viewBox="0 0 120 120" fill="none" aria-hidden="true">
  <defs>
    <linearGradient id="g" x1="0" y1="0" x2="1" y2="1">
      <stop offset="0" stop-color="#8f7136"/>
      <stop offset=".5" stop-color="#c5a35a"/>
      <stop offset="1" stop-color="#ecdcab"/>
    </linearGradient>
  </defs>
  <g stroke="url(#g)" stroke-width="2" stroke-linecap="round" stroke-linejoin="round">
    <!-- medallón doble -->
    <circle cx="60" cy="60" r="54"/>
    <circle cx="60" cy="60" r="48" stroke-width="1" opacity=".5"/>
    <!-- tufts / orejas -->
    <path d="M31 44 L45 30 M89 44 L75 30"/>
    <!-- disco facial que baja al pico -->
    <path d="M31 49 Q46 39 55 55 M89 49 Q74 39 65 55"/>
    <!-- ojos -->
    <circle cx="45" cy="57" r="12.5"/>
    <circle cx="75" cy="57" r="12.5"/>
    <!-- pico -->
    <path d="M55 55 L60 73 L65 55"/>
    <!-- plumaje / cola (fan, no sonrisa) -->
    <path d="M60 73 L51 88 M60 73 L60 90 M60 73 L69 88" opacity=".85"/>
    <path d="M46 80 L42 90 M74 80 L78 90" opacity=".5" stroke-width="1.4"/>
  </g>
  <g fill="url(#g)">
    <circle cx="45" cy="57" r="4.6"/>
    <circle cx="75" cy="57" r="4.6"/>
  </g>
</svg>
