<svg xmlns="http://www.w3.org/2000/svg" viewBox="0 0 120 120" width="120" height="120">
  <defs>
    <linearGradient id="tile" x1="0" y1="0" x2="1" y2="1">
      <stop offset="0" stop-color="#0e1d33"/><stop offset="1" stop-color="#060d19"/>
    </linearGradient>
    <linearGradient id="g" x1="0" y1="0" x2="1" y2="1">
      <stop offset="0" stop-color="#8f7136"/><stop offset=".5" stop-color="#c5a35a"/><stop offset="1" stop-color="#ecdcab"/>
    </linearGradient>
  </defs>
  <rect width="120" height="120" rx="26" fill="url(#tile)"/>
  <g transform="translate(60 60) scale(0.62) translate(-60 -60)" fill="none" stroke="url(#g)" stroke-width="3" stroke-linecap="round" stroke-linejoin="round">
    <circle cx="60" cy="60" r="54"/>
    <circle cx="60" cy="60" r="48" stroke-width="1.5" opacity=".5"/>
    <path d="M31 44 L45 30 M89 44 L75 30"/>
    <path d="M31 49 Q46 39 55 55 M89 49 Q74 39 65 55"/>
    <circle cx="45" cy="57" r="12.5"/>
    <circle cx="75" cy="57" r="12.5"/>
    <path d="M55 55 L60 73 L65 55"/>
    <path d="M60 73 L51 88 M60 73 L60 90 M60 73 L69 88" opacity=".85"/>
  </g>
  <g fill="url(#g)" transform="translate(60 60) scale(0.62) translate(-60 -60)">
    <circle cx="45" cy="57" r="4.6"/><circle cx="75" cy="57" r="4.6"/>
  </g>
</svg>
